<?xml version="1.0" encoding="UTF-8" standalone="no"?><!DOCTYPE svg PUBLIC "-//W3C//DTD SVG 1.1//EN" "http://www.w3.org/Graphics/SVG/1.1/DTD/svg11.dtd"><svg width="100%" height="100%" viewBox="0 0 90 12" version="1.1" xmlns="http://www.w3.org/2000/svg" xmlns:xlink="http://www.w3.org/1999/xlink" xml:space="preserve" xmlns:serif="http://www.serif.com/" style="fill-rule:evenodd;clip-rule:evenodd;"><rect x="0" y="0" width="12" height="12" style="fill:#e66d31;fill-rule:nonzero;"/><circle cx="3" cy="4" r="1.5" style="fill:none;stroke:#000;stroke-width:1px;"/><circle cx="9" cy="4" r="1.5" style="fill:none;stroke:#000;stroke-width:1px;"/><path d="M2.5,5.5l0,3.5l2.5,1.5m4.5,-4.9l0,3.4l-2.5,1.5" style="fill:none;fill-rule:nonzero;stroke:#000;stroke-width:1px;"/><path d="M6,8.6l1.5,-1.6l-3,0l1.5,1.6Z" style="fill-rule:nonzero;"/><path d="M86.6,3.97c-0.037,0.067 -0.088,0.125 -0.15,0.17c-0.059,0.038 -0.13,0.056 -0.2,0.05c-0.092,-0.002 -0.182,-0.03 -0.26,-0.08l-0.33,-0.2c-0.14,-0.08 -0.288,-0.147 -0.44,-0.2c-0.194,-0.059 -0.397,-0.086 -0.6,-0.08c-0.22,0 -0.4,0.03 -0.56,0.08c-0.16,0.05 -0.3,0.12 -0.4,0.2c-0.1,0.1 -0.18,0.2 -0.23,0.33c-0.06,0.13 -0.08,0.27 -0.08,0.42c-0,0.2 0.05,0.35 0.16,0.47c0.1,0.13 0.25,0.24 0.42,0.33c0.18,0.1 0.38,0.17 0.6,0.24l0.7,0.23c0.23,0.08 0.46,0.17 0.7,0.28c0.22,0.1 0.42,0.24 0.6,0.4c0.18,0.17 0.32,0.37 0.42,0.6c0.1,0.24 0.16,0.53 0.16,0.87c-0,0.36 -0.06,0.7 -0.18,1.03c-0.252,0.654 -0.779,1.166 -1.44,1.4c-1.351,0.447 -2.844,0.116 -3.88,-0.86l0.45,-0.73c0.04,-0.05 0.08,-0.1 0.14,-0.13c0.06,-0.039 0.129,-0.06 0.2,-0.06c0.1,0 0.2,0.04 0.3,0.12c0.1,0.08 0.24,0.16 0.4,0.26c0.15,0.1 0.32,0.17 0.52,0.25c0.2,0.08 0.44,0.12 0.73,0.12c0.43,0 0.76,-0.1 1,-0.3c0.23,-0.2 0.35,-0.5 0.35,-0.88c0.007,-0.186 -0.049,-0.37 -0.16,-0.52c-0.115,-0.141 -0.258,-0.257 -0.42,-0.34c-0.18,-0.1 -0.38,-0.17 -0.6,-0.24l-0.7,-0.2c-0.232,-0.079 -0.459,-0.173 -0.68,-0.28c-0.47,-0.192 -0.842,-0.568 -1.03,-1.04c-0.332,-0.881 -0.12,-1.879 0.54,-2.55c0.22,-0.22 0.5,-0.4 0.83,-0.52c0.8,-0.263 1.666,-0.252 2.46,0.03c0.386,0.137 0.74,0.351 1.04,0.63l-0.38,0.7Zm-51.53,2.58l0,3.3c-0.4,0.3 -0.85,0.52 -1.32,0.66c-0.47,0.14 -0.97,0.2 -1.5,0.2c-0.66,0 -1.27,-0.1 -1.8,-0.3c-1.034,-0.363 -1.86,-1.16 -2.26,-2.18c-0.207,-0.532 -0.309,-1.099 -0.3,-1.67c0,-0.6 0.1,-1.17 0.3,-1.68c0.384,-1 1.172,-1.792 2.17,-2.18c1.125,-0.402 2.355,-0.402 3.48,0c0.459,0.163 0.878,0.422 1.23,0.76l-0.43,0.7c-0.056,0.103 -0.155,0.176 -0.27,0.2c-0.1,0 -0.22,0 -0.35,-0.08l-0.37,-0.22c-0.488,-0.252 -1.031,-0.379 -1.58,-0.37c-0.4,0 -0.77,0.08 -1.1,0.2c-0.32,0.14 -0.6,0.33 -0.83,0.58c-0.23,0.25 -0.4,0.55 -0.53,0.9c-0.12,0.36 -0.18,0.75 -0.18,1.2c0,0.46 0.06,0.88 0.2,1.24c0.227,0.692 0.758,1.245 1.44,1.5c0.33,0.14 0.7,0.2 1.13,0.2c0.521,0.011 1.037,-0.109 1.5,-0.35l0,-1.48l-1,0c-0.084,0.007 -0.168,-0.022 -0.23,-0.08c-0.053,-0.053 -0.082,-0.125 -0.08,-0.2l0,-0.85l2.68,0Zm24.75,0c0,0.6 -0.1,1.16 -0.3,1.66c-0.378,0.994 -1.149,1.79 -2.13,2.2c-0.5,0.2 -1.07,0.3 -1.68,0.3c-0.62,0 -1.18,-0.1 -1.7,-0.3c-0.988,-0.403 -1.765,-1.201 -2.14,-2.2c-0.2,-0.5 -0.3,-1.06 -0.3,-1.65c0,-0.6 0.1,-1.15 0.3,-1.66c0.383,-0.995 1.156,-1.79 2.14,-2.2c0.5,-0.2 1.07,-0.3 1.7,-0.3c0.754,0.002 1.496,0.191 2.16,0.55c0.609,0.345 1.108,0.854 1.44,1.47c0.337,0.663 0.515,1.396 0.52,2.14l-0.01,-0.01Zm-35.4,-2.81l-2.45,0l0,6.89l-1.52,0l0,-6.89l-2.45,0l0,-1.24l6.42,0l0,1.24Zm2.36,6.89l-1.52,0l0,-8.13l1.52,0l0,8.13Zm54.37,-6.93l-3.62,0l0,2.26l2.85,0l0,1.16l-2.84,0l0,2.3l3.6,0l0,1.2l-5.12,0l0,-8.12l5.13,0l0,1.2Zm-39.72,0l-3.6,0l0,2.26l2.85,0l0,1.16l-2.85,0l0,2.3l3.62,0l0,1.21l-5.15,0l0,-8.13l5.13,0l0,1.2Zm2.67,6.94l-1.53,0l0,-8.14l2.48,0c0.55,0 1,0.06 1.42,0.17c0.4,0.12 0.72,0.28 0.97,0.48c0.26,0.2 0.44,0.46 0.56,0.74c0.12,0.3 0.18,0.6 0.18,0.95c0.026,0.788 -0.366,1.534 -1.03,1.96c-0.234,0.158 -0.49,0.279 -0.76,0.36c0.201,0.116 0.372,0.277 0.5,0.47l2.03,3l-1.37,0c-0.26,0 -0.44,-0.1 -0.56,-0.3l-1.7,-2.6c-0.05,-0.082 -0.118,-0.15 -0.2,-0.2c-0.107,-0.047 -0.224,-0.067 -0.34,-0.06l-0.65,0l0,3.17Zm25.95,-0.01l-1.51,0l0,-8.13l1.5,0l0,3.4l0.36,0c0.14,0 0.26,0 0.35,-0.05c0.096,-0.044 0.179,-0.113 0.24,-0.2l2.25,-2.84c0.1,-0.12 0.2,-0.2 0.3,-0.25c0.1,-0.05 0.23,-0.07 0.38,-0.07l1.3,0l-2.72,3.38c-0.16,0.2 -0.33,0.35 -0.5,0.44c0.12,0.04 0.23,0.1 0.33,0.2c0.1,0.08 0.2,0.18 0.3,0.32l2.82,3.8l-1.35,0c-0.137,0.01 -0.275,-0.014 -0.4,-0.07c-0.094,-0.052 -0.173,-0.128 -0.23,-0.22l-2.3,-3c-0.058,-0.094 -0.141,-0.17 -0.24,-0.22c-0.1,-0.04 -0.23,-0.06 -0.4,-0.06l-0.48,0l0,3.57Zm-2.13,-0l-1.18,-0c-0.115,0.004 -0.228,-0.031 -0.32,-0.1c-0.087,-0.061 -0.156,-0.144 -0.2,-0.24l-0.6,-1.66l-3.37,-0l-0.6,1.66c-0.033,0.094 -0.092,0.177 -0.17,0.24c-0.1,0.07 -0.2,0.1 -0.33,0.1l-1.18,-0l3.2,-8.13l1.55,-0l3.2,8.13Zm-9.63,-4.06c0,-0.45 -0.06,-0.85 -0.18,-1.2c-0.12,-0.36 -0.3,-0.66 -0.52,-0.9c-0.22,-0.248 -0.494,-0.443 -0.8,-0.57c-0.32,-0.14 -0.68,-0.2 -1.07,-0.2c-0.4,-0 -0.76,0.06 -1.08,0.2c-0.3,0.13 -0.58,0.32 -0.8,0.56c-0.23,0.25 -0.4,0.55 -0.52,0.9c-0.12,0.36 -0.18,0.76 -0.18,1.2c0,0.45 0.06,0.85 0.18,1.2c0.188,0.668 0.676,1.211 1.32,1.47c0.32,0.13 0.68,0.2 1.08,0.2c0.4,0 0.75,-0.07 1.07,-0.2c0.3,-0.13 0.58,-0.32 0.8,-0.56c0.23,-0.25 0.4,-0.55 0.52,-0.9c0.12,-0.36 0.18,-0.76 0.18,-1.2Zm6.95,1l-1,-2.7c-0.126,-0.311 -0.226,-0.632 -0.3,-0.96c-0.085,0.328 -0.185,0.652 -0.3,0.97l-1,2.7l2.6,0l0,-0.01Zm-20.2,-3.9l-0.97,0l0,2.7l0.95,0c0.28,0 0.53,-0.04 0.74,-0.1c0.2,-0.08 0.4,-0.18 0.53,-0.3c0.13,-0.13 0.23,-0.28 0.3,-0.45c0.07,-0.17 0.1,-0.36 0.1,-0.57c0,-0.4 -0.13,-0.73 -0.4,-0.95c-0.28,-0.22 -0.7,-0.33 -1.25,-0.33Z" style="fill-rule:nonzero;"/><path d="M60.27,6.561c-0.001,0.656 -0.113,1.269 -0.329,1.809c-0.422,1.109 -1.282,1.998 -2.384,2.458c-0.55,0.22 -1.176,0.332 -1.847,0.332c-0.679,0 -1.292,-0.111 -1.87,-0.333c-1.105,-0.45 -1.972,-1.342 -2.388,-2.45c-0.22,-0.551 -0.332,-1.167 -0.332,-1.817c-0,-0.66 0.111,-1.264 0.33,-1.822c0.426,-1.109 1.29,-1.997 2.393,-2.456c0.549,-0.22 1.175,-0.332 1.868,-0.332c0.829,0.002 1.644,0.21 2.381,0.608c0.682,0.387 1.242,0.958 1.614,1.648l0.006,0.01c0.368,0.726 0.563,1.527 0.568,2.341l-0.01,0.004Zm-27.56,1.569c-0.202,0.01 -0.4,-0.063 -0.552,-0.205l-0.005,-0.005c-0.142,-0.14 -0.219,-0.334 -0.213,-0.533l-0,0.013l-0,-1.3l3.58,-0l0,3.975l-0.18,0.135c-0.443,0.333 -0.941,0.577 -1.461,0.732c-0.511,0.152 -1.053,0.218 -1.629,0.218c-0.718,0 -1.382,-0.111 -1.949,-0.325c-1.158,-0.407 -2.082,-1.298 -2.531,-2.441c-0.228,-0.587 -0.341,-1.212 -0.33,-1.834c-0,-0.659 0.111,-1.284 0.33,-1.841c0.429,-1.118 1.311,-2.005 2.427,-2.439l0.011,-0.004c1.223,-0.437 2.561,-0.437 3.783,-0c0.519,0.184 0.993,0.477 1.391,0.859l0.262,0.252l-0.62,1.009l0.011,-0.02c-0.119,0.219 -0.329,0.374 -0.574,0.425l-0.045,0.009l-0.046,0c-0.168,0 -0.367,-0.012 -0.58,-0.143l-0.357,-0.212c-0.419,-0.214 -0.885,-0.322 -1.363,-0.315c-0.339,0 -0.652,0.068 -0.932,0.168c-0.256,0.114 -0.482,0.266 -0.667,0.467c-0.19,0.207 -0.328,0.456 -0.436,0.744c-0.104,0.316 -0.155,0.657 -0.155,1.051c0,0.399 0.048,0.764 0.17,1.077l0.008,0.023c0.184,0.562 0.615,1.011 1.179,1.222l0.009,0.003c0.278,0.118 0.591,0.165 0.964,0.165c0.356,0.007 0.71,-0.057 1.04,-0.189l-0,-0.741l-0.54,0Zm37.79,-0.62l0,3.57l-3.76,0l0.018,0c-0.219,0.009 -0.433,-0.058 -0.608,-0.189c-0.146,-0.106 -0.263,-0.248 -0.339,-0.413l-0.008,-0.017l-0.499,-1.381l-2.738,0l-0.491,1.36c-0.062,0.173 -0.17,0.326 -0.312,0.441l-0.025,0.018c-0.178,0.125 -0.356,0.181 -0.588,0.181l-1.841,0l3.554,-9.03l2.164,-0l3.063,7.781l-0,-7.781l2.4,-0l0,3.397l0.065,-0.003l0.007,-0.003c0.024,-0.011 0.044,-0.028 0.06,-0.05l0.007,-0.011l2.265,-2.858c0.147,-0.177 0.297,-0.291 0.445,-0.365c0.153,-0.077 0.351,-0.117 0.581,-0.117l1.3,-0l0.35,0.73l-0,-0.72l6.03,-0l0,2.046c0.126,-0.475 0.373,-0.92 0.732,-1.284c0.263,-0.264 0.598,-0.481 0.994,-0.625l0.013,-0.005c0.896,-0.294 1.864,-0.282 2.751,0.033c0.444,0.158 0.852,0.404 1.197,0.725l0.255,0.238l-0.548,1.011c-0.069,0.123 -0.164,0.231 -0.278,0.314l-0.022,0.015c-0.138,0.09 -0.302,0.132 -0.466,0.122c-0.171,-0.006 -0.338,-0.058 -0.483,-0.152l0.012,0.007l-0.323,-0.196c-0.113,-0.063 -0.231,-0.117 -0.352,-0.16c-0.146,-0.043 -0.298,-0.063 -0.456,-0.059l-0.006,0c-0.167,0 -0.304,0.022 -0.426,0.06c-0.091,0.029 -0.174,0.065 -0.236,0.109c-0.045,0.046 -0.084,0.092 -0.108,0.153l-0.011,0.027c-0.033,0.071 -0.039,0.149 -0.039,0.231c0,0.069 0.004,0.124 0.042,0.166l0.025,0.029c0.064,0.084 0.165,0.149 0.278,0.209l0.004,0.002c0.155,0.086 0.328,0.144 0.52,0.205c-0,0 0.702,0.231 0.709,0.234c0.243,0.084 0.486,0.179 0.738,0.295c0.261,0.119 0.5,0.284 0.718,0.478l0.005,0.005c0.225,0.211 0.399,0.461 0.527,0.754c0.12,0.288 0.194,0.635 0.194,1.043c0,0.414 -0.069,0.805 -0.21,1.192c-0.299,0.777 -0.925,1.385 -1.719,1.666c-1.386,0.458 -2.906,0.183 -4.041,-0.711l0,0.843l-5.252,0l0.007,0.01l-2.233,0c-0.204,0.012 -0.409,-0.025 -0.596,-0.109l-0.035,-0.017c-0.154,-0.086 -0.284,-0.208 -0.38,-0.355l-2.302,-3.003l-0.012,-0.019c-0.011,-0.018 -0.027,-0.034 -0.044,-0.046c-0.056,-0.017 -0.126,-0.021 -0.213,-0.021l-0.03,0Zm-25.95,0.41l0,3.17l-2.43,0l-0,-9.04c-0,-0 2.93,-0 2.93,-0c0.594,-0 1.08,0.065 1.534,0.184l0.015,0.005c0.464,0.139 0.833,0.328 1.116,0.554c0.323,0.249 0.55,0.571 0.703,0.93c0.14,0.35 0.211,0.7 0.212,1.108c0.03,0.945 -0.441,1.838 -1.228,2.342c-0.064,0.044 -0.13,0.084 -0.197,0.123c0.02,0.026 0.04,0.054 0.058,0.082l2.506,3.702c-0,0 -2.219,0 -2.219,0c-0.437,0 -0.736,-0.175 -0.939,-0.507l-1.706,-2.609c-0.007,-0.012 -0.017,-0.023 -0.028,-0.033c-0.032,-0.01 -0.066,-0.013 -0.1,-0.011l-0.227,-0Zm-27,-5.87l9.68,-0l0,9.03l-2.42,0l-0,-6.89l-2.39,0l0,6.89l-2.42,0l-0,-6.89l-2.45,0l-0,-2.14Zm20.73,6.92l3.62,-0l0,2.11l-6.05,0l-0,-9.03l6.03,-0l0,2.1l-3.6,0l0,1.36l2.85,-0l0,2.06l-2.85,0l0,1.4Zm21.54,-2.42c-0,0.6 -0.1,1.16 -0.3,1.66c-0.378,0.994 -1.149,1.79 -2.13,2.2c-0.5,0.2 -1.07,0.3 -1.68,0.3c-0.62,0 -1.18,-0.1 -1.7,-0.3c-0.988,-0.403 -1.765,-1.201 -2.14,-2.2c-0.2,-0.5 -0.3,-1.06 -0.3,-1.65c-0,-0.6 0.1,-1.15 0.3,-1.66c0.383,-0.995 1.156,-1.79 2.14,-2.2c0.5,-0.2 1.07,-0.3 1.7,-0.3c0.754,0.002 1.496,0.191 2.16,0.55c0.609,0.345 1.108,0.854 1.44,1.47c0.337,0.663 0.515,1.396 0.52,2.14l-0.01,-0.01Zm-24.75,0l-0,3.3c-0.4,0.3 -0.85,0.52 -1.32,0.66c-0.47,0.14 -0.97,0.2 -1.5,0.2c-0.66,0 -1.27,-0.1 -1.8,-0.3c-1.034,-0.363 -1.86,-1.16 -2.26,-2.18c-0.207,-0.532 -0.309,-1.099 -0.3,-1.67c-0,-0.6 0.1,-1.17 0.3,-1.68c0.384,-1 1.172,-1.792 2.17,-2.18c1.125,-0.402 2.355,-0.402 3.48,0c0.459,0.163 0.878,0.422 1.23,0.76l-0.43,0.7c-0.056,0.103 -0.155,0.176 -0.27,0.2c-0.1,0 -0.22,0 -0.35,-0.08l-0.37,-0.22c-0.488,-0.252 -1.031,-0.379 -1.58,-0.37c-0.4,0 -0.77,0.08 -1.1,0.2c-0.32,0.14 -0.6,0.33 -0.83,0.58c-0.23,0.25 -0.4,0.55 -0.53,0.9c-0.12,0.36 -0.18,0.75 -0.18,1.2c-0,0.46 0.06,0.88 0.2,1.24c0.227,0.692 0.758,1.245 1.44,1.5c0.33,0.14 0.7,0.2 1.13,0.2c0.521,0.011 1.037,-0.109 1.5,-0.35l-0,-1.48l-1,0c-0.084,0.007 -0.168,-0.022 -0.23,-0.08c-0.053,-0.053 -0.082,-0.125 -0.08,-0.2l-0,-0.85l2.68,0Zm51.53,-2.58l0.38,-0.7c-0.3,-0.279 -0.654,-0.493 -1.04,-0.63c-0.794,-0.282 -1.66,-0.293 -2.46,-0.03c-0.33,0.12 -0.61,0.3 -0.83,0.52c-0.66,0.671 -0.872,1.669 -0.54,2.55c0.188,0.472 0.56,0.848 1.03,1.04c0.221,0.107 0.448,0.201 0.68,0.28l0.7,0.2c0.22,0.07 0.42,0.14 0.6,0.24c0.162,0.083 0.305,0.199 0.42,0.34c0.111,0.15 0.167,0.334 0.16,0.52c-0,0.38 -0.12,0.68 -0.35,0.88c-0.24,0.2 -0.57,0.3 -1,0.3c-0.29,0 -0.53,-0.04 -0.73,-0.12c-0.2,-0.08 -0.37,-0.15 -0.52,-0.25c-0.16,-0.1 -0.3,-0.18 -0.4,-0.26c-0.1,-0.08 -0.2,-0.12 -0.3,-0.12c-0.071,0 -0.14,0.021 -0.2,0.06c-0.06,0.03 -0.1,0.08 -0.14,0.13l-0.45,0.73c1.036,0.976 2.529,1.307 3.88,0.86c0.661,-0.234 1.188,-0.746 1.44,-1.4c0.12,-0.33 0.18,-0.67 0.18,-1.03c-0,-0.34 -0.06,-0.63 -0.16,-0.87c-0.1,-0.23 -0.24,-0.43 -0.42,-0.6c-0.18,-0.16 -0.38,-0.3 -0.6,-0.4c-0.24,-0.11 -0.47,-0.2 -0.7,-0.28l-0.7,-0.23c-0.22,-0.07 -0.42,-0.14 -0.6,-0.24c-0.17,-0.09 -0.32,-0.2 -0.42,-0.33c-0.11,-0.12 -0.16,-0.27 -0.16,-0.47c-0,-0.15 0.02,-0.29 0.08,-0.42c0.05,-0.13 0.13,-0.23 0.23,-0.33c0.1,-0.08 0.24,-0.15 0.4,-0.2c0.16,-0.05 0.34,-0.08 0.56,-0.08c0.203,-0.006 0.406,0.021 0.6,0.08c0.152,0.053 0.3,0.12 0.44,0.2l0.33,0.2c0.078,0.05 0.168,0.078 0.26,0.08c0.07,0.006 0.141,-0.012 0.2,-0.05c0.062,-0.045 0.113,-0.103 0.15,-0.17Zm-42.5,6.67l-1.53,0l-0,-8.14l2.48,0c0.55,0 1,0.06 1.42,0.17c0.4,0.12 0.72,0.28 0.97,0.48c0.26,0.2 0.44,0.46 0.56,0.74c0.12,0.3 0.18,0.6 0.18,0.95c0.026,0.788 -0.366,1.534 -1.03,1.96c-0.234,0.158 -0.49,0.279 -0.76,0.36c0.201,0.116 0.372,0.277 0.5,0.47l2.03,3l-1.37,0c-0.26,0 -0.44,-0.1 -0.56,-0.3l-1.7,-2.6c-0.05,-0.082 -0.118,-0.15 -0.2,-0.2c-0.107,-0.047 -0.224,-0.067 -0.34,-0.06l-0.65,0l-0,3.17Zm25.95,-0.01l-1.51,0l-0,-8.13l1.5,0l-0,3.4l0.36,0c0.14,0 0.26,0 0.35,-0.05c0.096,-0.044 0.179,-0.113 0.24,-0.2l2.25,-2.84c0.1,-0.12 0.2,-0.2 0.3,-0.25c0.1,-0.05 0.23,-0.07 0.38,-0.07l1.3,0l-2.72,3.38c-0.16,0.2 -0.33,0.35 -0.5,0.44c0.12,0.04 0.23,0.1 0.33,0.2c0.1,0.08 0.2,0.18 0.3,0.32l2.82,3.8l-1.35,0c-0.137,0.01 -0.275,-0.014 -0.4,-0.07c-0.094,-0.052 -0.173,-0.128 -0.23,-0.22l-2.3,-3c-0.058,-0.094 -0.141,-0.17 -0.24,-0.22c-0.1,-0.04 -0.23,-0.06 -0.4,-0.06l-0.48,0l-0,3.57Zm-2.13,-0l-1.18,-0c-0.115,0.004 -0.228,-0.031 -0.32,-0.1c-0.087,-0.061 -0.156,-0.144 -0.2,-0.24l-0.6,-1.66l-3.37,-0l-0.6,1.66c-0.033,0.094 -0.092,0.177 -0.17,0.24c-0.1,0.07 -0.2,0.1 -0.33,0.1l-1.18,-0l3.2,-8.13l1.55,-0l3.2,8.13Zm-43.5,-6.89l-2.45,0l-0,6.89l-1.52,0l-0,-6.89l-2.45,0l-0,-1.24l6.42,0l-0,1.24Zm17.01,-0.04l-3.6,0l-0,2.26l2.85,-0l-0,1.16l-2.85,-0l-0,2.3l3.62,-0l-0,1.21l-5.15,-0l-0,-8.13l5.13,-0l-0,1.2Zm-14.65,6.93l-1.52,-0l-0,-8.13l1.52,-0l-0,8.13Zm54.37,-6.93l-0,-1.2l-5.13,-0l-0,8.12l5.12,-0l-0,-1.2l-3.6,-0l-0,-2.3l2.84,-0l-0,-1.16l-2.85,-0l-0,-2.26l3.62,-0Zm-5.58,-0.926l-2.718,3.377c-0.035,0.044 -0.071,0.086 -0.106,0.125c0.083,0.08 0.165,0.173 0.246,0.286l2.578,3.473l-0,-7.261Zm-17.28,3.796c-0,-0.45 -0.06,-0.85 -0.18,-1.2c-0.12,-0.36 -0.3,-0.66 -0.52,-0.9c-0.22,-0.248 -0.494,-0.443 -0.8,-0.57c-0.32,-0.14 -0.68,-0.2 -1.07,-0.2c-0.4,-0 -0.76,0.06 -1.08,0.2c-0.3,0.13 -0.58,0.32 -0.8,0.56c-0.23,0.25 -0.4,0.55 -0.52,0.9c-0.12,0.36 -0.18,0.76 -0.18,1.2c-0,0.45 0.06,0.85 0.18,1.2c0.188,0.668 0.676,1.211 1.32,1.47c0.32,0.13 0.68,0.2 1.08,0.2c0.4,-0 0.75,-0.07 1.07,-0.2c0.3,-0.13 0.58,-0.32 0.8,-0.56c0.23,-0.25 0.4,-0.55 0.52,-0.9c0.12,-0.36 0.18,-0.76 0.18,-1.2Zm23.297,-2.42l-3.607,0l0,1.36l2.85,-0l0,2.06l-2.84,0l0,1.4l3.51,-0l0.191,-0.31l0.017,-0.021c0.075,-0.094 0.158,-0.179 0.267,-0.239c0.127,-0.078 0.273,-0.12 0.425,-0.12c0.192,-0 0.389,0.065 0.581,0.218c0.089,0.072 0.215,0.141 0.363,0.234l0.006,0.003c0.126,0.084 0.27,0.14 0.437,0.207c0.154,0.061 0.34,0.088 0.563,0.088c0.304,-0 0.542,-0.055 0.704,-0.19c0.14,-0.121 0.196,-0.31 0.196,-0.549l-0,-0.009c0.003,-0.081 -0.02,-0.161 -0.067,-0.227c-0.074,-0.089 -0.165,-0.162 -0.275,-0.217l-0.007,-0.004c-0.153,-0.086 -0.325,-0.143 -0.512,-0.203l-0.714,-0.205c-0.246,-0.083 -0.487,-0.182 -0.72,-0.295c-0.577,-0.241 -1.033,-0.704 -1.267,-1.292c-0.206,-0.55 -0.235,-1.138 -0.101,-1.689Zm-23.747,2.42c-0,0.388 -0.052,0.74 -0.157,1.058c-0.098,0.284 -0.235,0.532 -0.424,0.737c-0.179,0.195 -0.406,0.347 -0.648,0.452c-0.26,0.105 -0.554,0.163 -0.891,0.163c-0.337,-0 -0.641,-0.058 -0.91,-0.167c-0.516,-0.208 -0.906,-0.642 -1.057,-1.175l-0.007,-0.024c-0.105,-0.307 -0.156,-0.659 -0.156,-1.054c0,-0.388 0.052,-0.74 0.157,-1.058c0.098,-0.284 0.235,-0.532 0.424,-0.737c0.179,-0.195 0.406,-0.347 0.648,-0.452c0.268,-0.117 0.568,-0.163 0.901,-0.163c0.324,0 0.624,0.046 0.889,0.163c0.252,0.104 0.469,0.259 0.644,0.456c0.185,0.202 0.331,0.448 0.43,0.743c0.106,0.311 0.157,0.663 0.157,1.058Zm7.4,1l-1,-2.7c-0.126,-0.311 -0.226,-0.632 -0.3,-0.96c-0.085,0.328 -0.185,0.652 -0.3,0.97l-1,2.7l2.6,-0l-0,-0.01Zm-1.953,-0.44l1.31,-0l-0.655,-1.768l-0.655,1.768Zm-18.247,-3.46c0.55,-0 0.97,0.11 1.25,0.33c0.27,0.22 0.4,0.55 0.4,0.95c-0,0.21 -0.03,0.4 -0.1,0.57c-0.07,0.17 -0.17,0.32 -0.3,0.45c-0.13,0.12 -0.33,0.22 -0.53,0.3c-0.21,0.06 -0.46,0.1 -0.74,0.1l-0.95,-0l-0,-2.7l0.97,-0Zm-0.52,0.45l0,1.8l0.5,-0c0.224,-0 0.426,-0.031 0.596,-0.078c0.136,-0.055 0.272,-0.117 0.362,-0.197c0.084,-0.086 0.15,-0.185 0.196,-0.296c0.048,-0.119 0.066,-0.252 0.066,-0.399c-0,-0.25 -0.066,-0.463 -0.228,-0.596c-0.217,-0.17 -0.547,-0.234 -0.972,-0.234l-0.52,0Z" style="fill:#fff;"/></svg>